<svg width="30" height="38" viewBox="0 0 30 38" fill="none" xmlns="http://www.w3.org/2000/svg">
<g filter="url(#filter0_i_3593_5301)">
<path d="M20.8668 37.0374C21.1378 37.1765 21.4529 37.2022 21.7429 37.1089C21.8865 37.0627 22.0195 36.9887 22.1345 36.8911C22.2495 36.7935 22.3441 36.6742 22.4129 36.54C22.4818 36.4058 22.5235 36.2594 22.5358 36.109C22.5481 35.9587 22.5306 35.8075 22.4844 35.6639C22.4382 35.5203 22.3642 35.3872 22.2666 35.2723C22.169 35.1573 22.0497 35.0627 21.9155 34.9938L20.8668 37.0374ZM21.9155 34.9938C18.3599 33.1695 16.9122 30.7505 16.3019 28.0783C15.6588 25.2656 15.9344 22.2508 15.9344 19.0352H13.6376C13.6376 21.9568 13.3422 25.4415 14.0628 28.5902C14.8149 31.8793 16.6694 34.8836 20.8668 37.0374L21.9155 34.9938Z" fill="url(#paint0_linear_3593_5301)"/>
<path d="M20.8668 37.0374C21.1378 37.1765 21.4529 37.2022 21.7429 37.1089C21.8865 37.0627 22.0195 36.9887 22.1345 36.8911C22.2495 36.7935 22.3441 36.6742 22.4129 36.54C22.4818 36.4058 22.5235 36.2594 22.5358 36.109C22.5481 35.9587 22.5306 35.8075 22.4844 35.6639C22.4382 35.5203 22.3642 35.3872 22.2666 35.2723C22.169 35.1573 22.0497 35.0627 21.9155 34.9938L20.8668 37.0374ZM21.9155 34.9938C18.3599 33.1695 16.9122 30.7505 16.3019 28.0783C15.6588 25.2656 15.9344 22.2508 15.9344 19.0352H13.6376C13.6376 21.9568 13.3422 25.4415 14.0628 28.5902C14.8149 31.8793 16.6694 34.8836 20.8668 37.0374L21.9155 34.9938Z" fill="url(#paint1_radial_3593_5301)"/>
<path d="M20.8668 37.0374C21.1378 37.1765 21.4529 37.2022 21.7429 37.1089C21.8865 37.0627 22.0195 36.9887 22.1345 36.8911C22.2495 36.7935 22.3441 36.6742 22.4129 36.54C22.4818 36.4058 22.5235 36.2594 22.5358 36.109C22.5481 35.9587 22.5306 35.8075 22.4844 35.6639C22.4382 35.5203 22.3642 35.3872 22.2666 35.2723C22.169 35.1573 22.0497 35.0627 21.9155 34.9938L20.8668 37.0374ZM21.9155 34.9938C18.3599 33.1695 16.9122 30.7505 16.3019 28.0783C15.6588 25.2656 15.9344 22.2508 15.9344 19.0352H13.6376C13.6376 21.9568 13.3422 25.4415 14.0628 28.5902C14.8149 31.8793 16.6694 34.8836 20.8668 37.0374L21.9155 34.9938Z" fill="url(#paint2_radial_3593_5301)"/>
</g>
<path d="M17.5791 28.2925C13.9054 25.5166 14.7152 18.8517 14.7152 14.8525C20.0479 14.8525 23.6901 14.5323 27.1354 16.7058C31.2882 19.3255 28.5096 24.8879 24.3883 24.4574C25.0236 28.1075 20.6556 30.617 17.5791 28.2925Z" fill="url(#paint3_linear_3593_5301)"/>
<path d="M17.5791 28.2925C13.9054 25.5166 14.7152 18.8517 14.7152 14.8525C20.0479 14.8525 23.6901 14.5323 27.1354 16.7058C31.2882 19.3255 28.5096 24.8879 24.3883 24.4574C25.0236 28.1075 20.6556 30.617 17.5791 28.2925Z" fill="url(#paint4_radial_3593_5301)"/>
<path d="M17.5791 28.2925C13.9054 25.5166 14.7152 18.8517 14.7152 14.8525C20.0479 14.8525 23.6901 14.5323 27.1354 16.7058C31.2882 19.3255 28.5096 24.8879 24.3883 24.4574C25.0236 28.1075 20.6556 30.617 17.5791 28.2925Z" fill="url(#paint5_radial_3593_5301)"/>
<path d="M17.5791 28.2925C13.9054 25.5166 14.7152 18.8517 14.7152 14.8525C20.0479 14.8525 23.6901 14.5323 27.1354 16.7058C31.2882 19.3255 28.5096 24.8879 24.3883 24.4574C25.0236 28.1075 20.6556 30.617 17.5791 28.2925Z" fill="url(#paint6_radial_3593_5301)"/>
<path d="M17.5791 28.2925C13.9054 25.5166 14.7152 18.8517 14.7152 14.8525C20.0479 14.8525 23.6901 14.5323 27.1354 16.7058C31.2882 19.3255 28.5096 24.8879 24.3883 24.4574C25.0236 28.1075 20.6556 30.617 17.5791 28.2925Z" fill="url(#paint7_radial_3593_5301)"/>
<path d="M17.5791 28.2925C13.9054 25.5166 14.7152 18.8517 14.7152 14.8525C20.0479 14.8525 23.6901 14.5323 27.1354 16.7058C31.2882 19.3255 28.5096 24.8879 24.3883 24.4574C25.0236 28.1075 20.6556 30.617 17.5791 28.2925Z" fill="url(#paint8_radial_3593_5301)"/>
<path d="M17.5791 28.2925C13.9054 25.5166 14.7152 18.8517 14.7152 14.8525C20.0479 14.8525 23.6901 14.5323 27.1354 16.7058C31.2882 19.3255 28.5096 24.8879 24.3883 24.4574C25.0236 28.1075 20.6556 30.617 17.5791 28.2925Z" fill="url(#paint9_radial_3593_5301)"/>
<path d="M17.5791 28.2925C13.9054 25.5166 14.7152 18.8517 14.7152 14.8525C20.0479 14.8525 23.6901 14.5323 27.1354 16.7058C31.2882 19.3255 28.5096 24.8879 24.3883 24.4574C25.0236 28.1075 20.6556 30.617 17.5791 28.2925Z" fill="url(#paint10_radial_3593_5301)"/>
<path d="M17.5791 28.2925C13.9054 25.5166 14.7152 18.8517 14.7152 14.8525C20.0479 14.8525 23.6901 14.5323 27.1354 16.7058C31.2882 19.3255 28.5096 24.8879 24.3883 24.4574C25.0236 28.1075 20.6556 30.617 17.5791 28.2925Z" fill="url(#paint11_radial_3593_5301)"/>
<path d="M14.7151 14.9119V14.8489C15.3433 14.848 15.9488 14.845 16.5316 14.8397C20.9022 14.8082 24.0968 14.7846 27.1366 16.7021C31.2421 19.293 28.6092 24.8055 24.3948 24.4564L14.7151 14.9119Z" fill="url(#paint12_linear_3593_5301)"/>
<path d="M14.7151 14.9119V14.8489C15.3433 14.848 15.9488 14.845 16.5316 14.8397C20.9022 14.8082 24.0968 14.7846 27.1366 16.7021C31.2421 19.293 28.6092 24.8055 24.3948 24.4564L14.7151 14.9119Z" fill="url(#paint13_radial_3593_5301)"/>
<g filter="url(#filter1_i_3593_5301)">
<path d="M17.6434 1.56171C14.3622 4.30878 14.8347 10.8923 14.8347 14.8915C20.166 14.8915 23.7557 15.322 27.201 13.1485C31.3525 10.5287 28.5739 4.96503 24.4527 5.39553C25.0879 1.74678 20.6005 -0.914974 17.6434 1.56171Z" fill="#48D386"/>
<path d="M17.6434 1.56171C14.3622 4.30878 14.8347 10.8923 14.8347 14.8915C20.166 14.8915 23.7557 15.322 27.201 13.1485C31.3525 10.5287 28.5739 4.96503 24.4527 5.39553C25.0879 1.74678 20.6005 -0.914974 17.6434 1.56171Z" fill="url(#paint14_radial_3593_5301)"/>
<path d="M17.6434 1.56171C14.3622 4.30878 14.8347 10.8923 14.8347 14.8915C20.166 14.8915 23.7557 15.322 27.201 13.1485C31.3525 10.5287 28.5739 4.96503 24.4527 5.39553C25.0879 1.74678 20.6005 -0.914974 17.6434 1.56171Z" fill="url(#paint15_radial_3593_5301)"/>
<path d="M17.6434 1.56171C14.3622 4.30878 14.8347 10.8923 14.8347 14.8915C20.166 14.8915 23.7557 15.322 27.201 13.1485C31.3525 10.5287 28.5739 4.96503 24.4527 5.39553C25.0879 1.74678 20.6005 -0.914974 17.6434 1.56171Z" fill="url(#paint16_radial_3593_5301)"/>
<path d="M17.6434 1.56171C14.3622 4.30878 14.8347 10.8923 14.8347 14.8915C20.166 14.8915 23.7557 15.322 27.201 13.1485C31.3525 10.5287 28.5739 4.96503 24.4527 5.39553C25.0879 1.74678 20.6005 -0.914974 17.6434 1.56171Z" fill="url(#paint17_radial_3593_5301)" fill-opacity="0.25"/>
<path d="M17.6434 1.56171C14.3622 4.30878 14.8347 10.8923 14.8347 14.8915C20.166 14.8915 23.7557 15.322 27.201 13.1485C31.3525 10.5287 28.5739 4.96503 24.4527 5.39553C25.0879 1.74678 20.6005 -0.914974 17.6434 1.56171Z" fill="url(#paint18_radial_3593_5301)"/>
</g>
<g filter="url(#filter2_i_3593_5301)">
<path d="M11.9129 28.2927C15.5866 25.5154 14.7217 18.8519 14.7217 14.8527C9.39029 14.8527 5.8006 14.5311 2.35529 16.7059C-1.79615 19.3257 0.982416 24.8881 5.10367 24.4576C4.46842 28.1076 8.83642 30.6171 11.9129 28.2927Z" fill="url(#paint19_radial_3593_5301)"/>
<path d="M11.9129 28.2927C15.5866 25.5154 14.7217 18.8519 14.7217 14.8527C9.39029 14.8527 5.8006 14.5311 2.35529 16.7059C-1.79615 19.3257 0.982416 24.8881 5.10367 24.4576C4.46842 28.1076 8.83642 30.6171 11.9129 28.2927Z" fill="url(#paint20_radial_3593_5301)"/>
<path d="M11.9129 28.2927C15.5866 25.5154 14.7217 18.8519 14.7217 14.8527C9.39029 14.8527 5.8006 14.5311 2.35529 16.7059C-1.79615 19.3257 0.982416 24.8881 5.10367 24.4576C4.46842 28.1076 8.83642 30.6171 11.9129 28.2927Z" fill="url(#paint21_radial_3593_5301)"/>
</g>
<path d="M11.9129 28.2927C15.5866 25.5154 14.7217 18.8519 14.7217 14.8527C9.39029 14.8527 5.8006 14.5311 2.35529 16.7059C-1.79615 19.3257 0.982416 24.8881 5.10367 24.4576C4.46842 28.1076 8.83642 30.6171 11.9129 28.2927Z" fill="url(#paint22_radial_3593_5301)"/>
<path d="M11.9129 28.2927C15.5866 25.5154 14.7217 18.8519 14.7217 14.8527C9.39029 14.8527 5.8006 14.5311 2.35529 16.7059C-1.79615 19.3257 0.982416 24.8881 5.10367 24.4576C4.46842 28.1076 8.83642 30.6171 11.9129 28.2927Z" fill="url(#paint23_radial_3593_5301)"/>
<g filter="url(#filter3_i_3593_5301)">
<path d="M11.9773 1.56171C15.2586 4.30878 14.7861 10.8923 14.7861 14.8915C9.45472 14.8915 5.86635 15.322 2.42103 13.1485C-1.7304 10.5287 1.04685 4.96503 5.16941 5.39553C4.53285 1.74678 9.0216 -0.914974 11.9773 1.56171Z" fill="url(#paint24_linear_3593_5301)"/>
<path d="M11.9773 1.56171C15.2586 4.30878 14.7861 10.8923 14.7861 14.8915C9.45472 14.8915 5.86635 15.322 2.42103 13.1485C-1.7304 10.5287 1.04685 4.96503 5.16941 5.39553C4.53285 1.74678 9.0216 -0.914974 11.9773 1.56171Z" fill="url(#paint25_radial_3593_5301)"/>
<path d="M11.9773 1.56171C15.2586 4.30878 14.7861 10.8923 14.7861 14.8915C9.45472 14.8915 5.86635 15.322 2.42103 13.1485C-1.7304 10.5287 1.04685 4.96503 5.16941 5.39553C4.53285 1.74678 9.0216 -0.914974 11.9773 1.56171Z" fill="url(#paint26_radial_3593_5301)"/>
<path d="M11.9773 1.56171C15.2586 4.30878 14.7861 10.8923 14.7861 14.8915C9.45472 14.8915 5.86635 15.322 2.42103 13.1485C-1.7304 10.5287 1.04685 4.96503 5.16941 5.39553C4.53285 1.74678 9.0216 -0.914974 11.9773 1.56171Z" fill="url(#paint27_radial_3593_5301)"/>
<path d="M11.9773 1.56171C15.2586 4.30878 14.7861 10.8923 14.7861 14.8915C9.45472 14.8915 5.86635 15.322 2.42103 13.1485C-1.7304 10.5287 1.04685 4.96503 5.16941 5.39553C4.53285 1.74678 9.0216 -0.914974 11.9773 1.56171Z" fill="url(#paint28_radial_3593_5301)"/>
<path d="M11.9773 1.56171C15.2586 4.30878 14.7861 10.8923 14.7861 14.8915C9.45472 14.8915 5.86635 15.322 2.42103 13.1485C-1.7304 10.5287 1.04685 4.96503 5.16941 5.39553C4.53285 1.74678 9.0216 -0.914974 11.9773 1.56171Z" fill="url(#paint29_radial_3593_5301)"/>
</g>
<g filter="url(#filter4_f_3593_5301)">
<path d="M15.0131 25.0625C14.8621 27.4289 15.9804 32.8719 21.657 35.7279" stroke="url(#paint30_linear_3593_5301)" stroke-width="0.15" stroke-linecap="round"/>
</g>
<g filter="url(#filter5_f_3593_5301)">
<path d="M7.6499 20.8777L14.4421 15.1211C13.7189 15.2589 11.8158 16.0293 10.3576 17.2683C8.71697 18.6635 7.68796 20.3238 7.6499 20.8777Z" fill="url(#paint31_linear_3593_5301)"/>
</g>
<g filter="url(#filter6_f_3593_5301)">
<path d="M14.2124 16.2031L9.66064 20.6341L13.6375 23.3825C14.425 20.495 14.3502 17.3936 14.2124 16.2031Z" fill="url(#paint32_radial_3593_5301)"/>
</g>
<g filter="url(#filter7_f_3593_5301)">
<path d="M23.9388 23.2697C26.0748 23.7871 28.1617 22.74 28.6 20.9308C29.0382 19.1216 27.6619 17.2356 25.5258 16.7181C23.3898 16.2007 21.3029 17.2479 20.8647 19.057C20.4264 20.8662 21.8028 22.7522 23.9388 23.2697Z" fill="url(#paint33_radial_3593_5301)"/>
</g>
<g filter="url(#filter8_f_3593_5301)">
<path d="M23.0389 23.3205L15.4841 15.918C16.2585 16.968 17.1589 18.1269 19.0331 20.4303C20.7433 22.5317 21.6804 23.163 23.0389 23.3205Z" fill="url(#paint34_radial_3593_5301)"/>
</g>
<g filter="url(#filter9_f_3593_5301)">
<path d="M7.69197 5.33461L14.3358 14.4394C14.3358 12.4497 14.3358 8.94398 13.5155 5.70342C12.9997 3.66773 11.5678 0.740858 8.44928 1.51917C5.95553 2.14261 7.19978 4.96448 7.69066 5.33461" fill="url(#paint35_radial_3593_5301)"/>
<path d="M7.69197 5.33461L14.3358 14.4394C14.3358 12.4497 14.3358 8.94398 13.5155 5.70342C12.9997 3.66773 11.5678 0.740858 8.44928 1.51917C5.95553 2.14261 7.19978 4.96448 7.69066 5.33461" fill="url(#paint36_radial_3593_5301)"/>
</g>
<g filter="url(#filter10_f_3593_5301)">
<path d="M6.65634 6.625L13.5863 13.8648C12.3985 13.2702 11.2698 12.8594 9.4244 10.9116C7.51997 8.90088 6.65634 7.26812 6.65634 6.625Z" fill="url(#paint37_linear_3593_5301)"/>
</g>
<g filter="url(#filter11_f_3593_5301)">
<path d="M25.6137 9.96561C27.1371 10.1374 28.4457 9.62385 28.5366 8.81855C28.6274 8.01324 27.466 7.22115 25.9425 7.04935C24.4191 6.87755 23.1105 7.39111 23.0197 8.19641C22.9288 9.00172 24.0902 9.79382 25.6137 9.96561Z" fill="url(#paint38_radial_3593_5301)"/>
</g>
<g filter="url(#filter12_f_3593_5301)">
<path d="M23.3798 4.30017C23.1924 2.77856 22.3884 1.62537 21.584 1.72444C20.7797 1.82352 20.2796 3.13734 20.467 4.65895C20.6545 6.18056 21.4584 7.33375 22.2628 7.23468C23.0671 7.1356 23.5672 5.82178 23.3798 4.30017Z" fill="url(#paint39_radial_3593_5301)"/>
</g>
<defs>
<filter id="filter0_i_3593_5301" x="13.5776" y="18.9602" width="9.03691" height="18.2039" filterUnits="userSpaceOnUse" color-interpolation-filters="sRGB">
<feFlood flood-opacity="0" result="BackgroundImageFix"/>
<feBlend mode="normal" in="SourceGraphic" in2="BackgroundImageFix" result="shape"/>
<feColorMatrix in="SourceAlpha" type="matrix" values="0 0 0 0 0 0 0 0 0 0 0 0 0 0 0 0 0 0 127 0" result="hardAlpha"/>
<feOffset dx="0.075" dy="-0.075"/>
<feGaussianBlur stdDeviation="0.25"/>
<feComposite in2="hardAlpha" operator="arithmetic" k2="-1" k3="1"/>
<feColorMatrix type="matrix" values="0 0 0 0 0.243137 0 0 0 0 0.380392 0 0 0 0 0.478431 0 0 0 1 0"/>
<feBlend mode="normal" in2="shape" result="effect1_innerShadow_3593_5301"/>
</filter>
<filter id="filter1_i_3593_5301" x="14.811" y="0.472656" width="14.5669" height="14.4531" filterUnits="userSpaceOnUse" color-interpolation-filters="sRGB">
<feFlood flood-opacity="0" result="BackgroundImageFix"/>
<feBlend mode="normal" in="SourceGraphic" in2="BackgroundImageFix" result="shape"/>
<feColorMatrix in="SourceAlpha" type="matrix" values="0 0 0 0 0 0 0 0 0 0 0 0 0 0 0 0 0 0 127 0" result="hardAlpha"/>
<feOffset dx="0.125" dy="-0.125"/>
<feGaussianBlur stdDeviation="0.25"/>
<feComposite in2="hardAlpha" operator="arithmetic" k2="-1" k3="1"/>
<feColorMatrix type="matrix" values="0 0 0 0 0.227451 0 0 0 0 0.596078 0 0 0 0 0.352941 0 0 0 1 0"/>
<feBlend mode="normal" in2="shape" result="effect1_innerShadow_3593_5301"/>
</filter>
<filter id="filter2_i_3593_5301" x="0.303467" y="14.8359" width="14.5068" height="14.3555" filterUnits="userSpaceOnUse" color-interpolation-filters="sRGB">
<feFlood flood-opacity="0" result="BackgroundImageFix"/>
<feBlend mode="normal" in="SourceGraphic" in2="BackgroundImageFix" result="shape"/>
<feColorMatrix in="SourceAlpha" type="matrix" values="0 0 0 0 0 0 0 0 0 0 0 0 0 0 0 0 0 0 127 0" result="hardAlpha"/>
<feOffset/>
<feGaussianBlur stdDeviation="0.5"/>
<feComposite in2="hardAlpha" operator="arithmetic" k2="-1" k3="1"/>
<feColorMatrix type="matrix" values="0 0 0 0 0.0901961 0 0 0 0 0.576471 0 0 0 0 0.313726 0 0 0 1 0"/>
<feBlend mode="normal" in2="shape" result="effect1_innerShadow_3593_5301"/>
</filter>
<filter id="filter3_i_3593_5301" x="0.368896" y="0.472656" width="14.5659" height="14.4531" filterUnits="userSpaceOnUse" color-interpolation-filters="sRGB">
<feFlood flood-opacity="0" result="BackgroundImageFix"/>
<feBlend mode="normal" in="SourceGraphic" in2="BackgroundImageFix" result="shape"/>
<feColorMatrix in="SourceAlpha" type="matrix" values="0 0 0 0 0 0 0 0 0 0 0 0 0 0 0 0 0 0 127 0" result="hardAlpha"/>
<feOffset dx="0.125" dy="-0.125"/>
<feGaussianBlur stdDeviation="0.25"/>
<feComposite in2="hardAlpha" operator="arithmetic" k2="-1" k3="1"/>
<feColorMatrix type="matrix" values="0 0 0 0 0.211765 0 0 0 0 0.505882 0 0 0 0 0.407843 0 0 0 1 0"/>
<feBlend mode="normal" in2="shape" result="effect1_innerShadow_3593_5301"/>
</filter>
<filter id="filter4_f_3593_5301" x="14.7253" y="24.7883" width="7.20664" height="11.2164" filterUnits="userSpaceOnUse" color-interpolation-filters="sRGB">
<feFlood flood-opacity="0" result="BackgroundImageFix"/>
<feBlend mode="normal" in="SourceGraphic" in2="BackgroundImageFix" result="shape"/>
<feGaussianBlur stdDeviation="0.1" result="effect1_foregroundBlur_3593_5301"/>
</filter>
<filter id="filter5_f_3593_5301" x="7.3999" y="14.8711" width="7.29224" height="6.25781" filterUnits="userSpaceOnUse" color-interpolation-filters="sRGB">
<feFlood flood-opacity="0" result="BackgroundImageFix"/>
<feBlend mode="normal" in="SourceGraphic" in2="BackgroundImageFix" result="shape"/>
<feGaussianBlur stdDeviation="0.125" result="effect1_foregroundBlur_3593_5301"/>
</filter>
<filter id="filter6_f_3593_5301" x="9.41064" y="15.9531" width="5.13916" height="7.67969" filterUnits="userSpaceOnUse" color-interpolation-filters="sRGB">
<feFlood flood-opacity="0" result="BackgroundImageFix"/>
<feBlend mode="normal" in="SourceGraphic" in2="BackgroundImageFix" result="shape"/>
<feGaussianBlur stdDeviation="0.125" result="effect1_foregroundBlur_3593_5301"/>
</filter>
<filter id="filter7_f_3593_5301" x="20.1584" y="15.9609" width="9.14795" height="8.06641" filterUnits="userSpaceOnUse" color-interpolation-filters="sRGB">
<feFlood flood-opacity="0" result="BackgroundImageFix"/>
<feBlend mode="normal" in="SourceGraphic" in2="BackgroundImageFix" result="shape"/>
<feGaussianBlur stdDeviation="0.3125" result="effect1_foregroundBlur_3593_5301"/>
</filter>
<filter id="filter8_f_3593_5301" x="15.2841" y="15.718" width="7.95469" height="7.80234" filterUnits="userSpaceOnUse" color-interpolation-filters="sRGB">
<feFlood flood-opacity="0" result="BackgroundImageFix"/>
<feBlend mode="normal" in="SourceGraphic" in2="BackgroundImageFix" result="shape"/>
<feGaussianBlur stdDeviation="0.1" result="effect1_foregroundBlur_3593_5301"/>
</filter>
<filter id="filter9_f_3593_5301" x="6.5686" y="1.01562" width="8.14233" height="13.7969" filterUnits="userSpaceOnUse" color-interpolation-filters="sRGB">
<feFlood flood-opacity="0" result="BackgroundImageFix"/>
<feBlend mode="normal" in="SourceGraphic" in2="BackgroundImageFix" result="shape"/>
<feGaussianBlur stdDeviation="0.1875" result="effect1_foregroundBlur_3593_5301"/>
</filter>
<filter id="filter10_f_3593_5301" x="6.40625" y="6.375" width="7.43018" height="7.73828" filterUnits="userSpaceOnUse" color-interpolation-filters="sRGB">
<feFlood flood-opacity="0" result="BackgroundImageFix"/>
<feBlend mode="normal" in="SourceGraphic" in2="BackgroundImageFix" result="shape"/>
<feGaussianBlur stdDeviation="0.125" result="effect1_foregroundBlur_3593_5301"/>
</filter>
<filter id="filter11_f_3593_5301" x="22.5146" y="6.51562" width="6.52686" height="3.98438" filterUnits="userSpaceOnUse" color-interpolation-filters="sRGB">
<feFlood flood-opacity="0" result="BackgroundImageFix"/>
<feBlend mode="normal" in="SourceGraphic" in2="BackgroundImageFix" result="shape"/>
<feGaussianBlur stdDeviation="0.25" result="effect1_foregroundBlur_3593_5301"/>
</filter>
<filter id="filter12_f_3593_5301" x="19.9277" y="1.21875" width="3.99146" height="6.52344" filterUnits="userSpaceOnUse" color-interpolation-filters="sRGB">
<feFlood flood-opacity="0" result="BackgroundImageFix"/>
<feBlend mode="normal" in="SourceGraphic" in2="BackgroundImageFix" result="shape"/>
<feGaussianBlur stdDeviation="0.25" result="effect1_foregroundBlur_3593_5301"/>
</filter>
<linearGradient id="paint0_linear_3593_5301" x1="15.4842" y1="22.5632" x2="22.0467" y2="36.918" gradientUnits="userSpaceOnUse">
<stop stop-color="#18554D"/>
<stop offset="1" stop-color="#509E85"/>
</linearGradient>
<radialGradient id="paint1_radial_3593_5301" cx="0" cy="0" r="1" gradientUnits="userSpaceOnUse" gradientTransform="translate(22.6413 36.0163) rotate(167.692) scale(1.15447 1.23462)">
<stop stop-color="#6AAC9A"/>
<stop offset="1" stop-color="#6AAC9A" stop-opacity="0"/>
</radialGradient>
<radialGradient id="paint2_radial_3593_5301" cx="0" cy="0" r="1" gradientUnits="userSpaceOnUse" gradientTransform="translate(16.613 27.3) rotate(169.611) scale(1.25098 7.27221)">
<stop stop-color="#557C70"/>
<stop offset="1" stop-color="#557C70" stop-opacity="0"/>
</radialGradient>
<linearGradient id="paint3_linear_3593_5301" x1="14.0078" y1="15.3447" x2="22.8672" y2="23.2197" gradientUnits="userSpaceOnUse">
<stop stop-color="#2C9C60"/>
<stop offset="1" stop-color="#3CCE7F"/>
</linearGradient>
<radialGradient id="paint4_radial_3593_5301" cx="0" cy="0" r="1" gradientUnits="userSpaceOnUse" gradientTransform="translate(29.8411 21.5786) rotate(-161.184) scale(11.6995 5.57994)">
<stop stop-color="#46D282"/>
<stop offset="1" stop-color="#46D282" stop-opacity="0"/>
</radialGradient>
<radialGradient id="paint5_radial_3593_5301" cx="0" cy="0" r="1" gradientUnits="userSpaceOnUse" gradientTransform="translate(26.4765 27.8948) rotate(-139.207) scale(6.02682 6.80182)">
<stop stop-color="#43D592"/>
<stop offset="1" stop-color="#43D592" stop-opacity="0"/>
</radialGradient>
<radialGradient id="paint6_radial_3593_5301" cx="0" cy="0" r="1" gradientUnits="userSpaceOnUse" gradientTransform="translate(25.4517 25.8453) rotate(178.075) scale(4.88362 9.20023)">
<stop stop-color="#45DF94"/>
<stop offset="1" stop-color="#45DF94" stop-opacity="0"/>
</radialGradient>
<radialGradient id="paint7_radial_3593_5301" cx="0" cy="0" r="1" gradientUnits="userSpaceOnUse" gradientTransform="translate(15.0748 15.262) rotate(44.627) scale(9.61024 1.06379)">
<stop stop-color="#249F5C"/>
<stop offset="1" stop-color="#249F5C" stop-opacity="0"/>
</radialGradient>
<radialGradient id="paint8_radial_3593_5301" cx="0" cy="0" r="1" gradientUnits="userSpaceOnUse" gradientTransform="translate(22.2926 13.7034) rotate(99.541) scale(2.2875 10.7306)">
<stop stop-color="#439059"/>
<stop offset="1" stop-color="#439059" stop-opacity="0"/>
</radialGradient>
<radialGradient id="paint9_radial_3593_5301" cx="0" cy="0" r="1" gradientUnits="userSpaceOnUse" gradientTransform="translate(25.0005 25.8872) rotate(-179.091) scale(2.58431 3.07969)">
<stop stop-color="#4DD695"/>
<stop offset="1" stop-color="#4DD695" stop-opacity="0"/>
</radialGradient>
<radialGradient id="paint10_radial_3593_5301" cx="0" cy="0" r="1" gradientUnits="userSpaceOnUse" gradientTransform="translate(24.1797 20.1839) rotate(-179.576) scale(11.0745 25.0993)">
<stop offset="0.624" stop-color="#1D9453" stop-opacity="0"/>
<stop offset="1" stop-color="#1D9453"/>
</radialGradient>
<radialGradient id="paint11_radial_3593_5301" cx="0" cy="0" r="1" gradientUnits="userSpaceOnUse" gradientTransform="translate(21.9143 18.79) rotate(103.007) scale(11.6184 9.03803)">
<stop offset="0.841" stop-color="#438882" stop-opacity="0"/>
<stop offset="0.969" stop-color="#438882"/>
</radialGradient>
<linearGradient id="paint12_linear_3593_5301" x1="13.9263" y1="19.6553" x2="18.4373" y2="16.1194" gradientUnits="userSpaceOnUse">
<stop stop-color="#219756"/>
<stop offset="1" stop-color="#219756" stop-opacity="0"/>
</linearGradient>
<radialGradient id="paint13_radial_3593_5301" cx="0" cy="0" r="1" gradientUnits="userSpaceOnUse" gradientTransform="translate(23.606 17.2678) rotate(88.2643) scale(8.12482 19.3406)">
<stop offset="0.821" stop-color="#438882" stop-opacity="0"/>
<stop offset="1" stop-color="#438882"/>
</radialGradient>
<radialGradient id="paint14_radial_3593_5301" cx="0" cy="0" r="1" gradientUnits="userSpaceOnUse" gradientTransform="translate(23.7531 6.31978) rotate(135) scale(13.9212 13.1919)">
<stop offset="0.279" stop-color="#188A50" stop-opacity="0"/>
<stop offset="1" stop-color="#188A50"/>
</radialGradient>
<radialGradient id="paint15_radial_3593_5301" cx="0" cy="0" r="1" gradientUnits="userSpaceOnUse" gradientTransform="translate(26.0487 3.61184) rotate(133.688) scale(7.60062 7.99461)">
<stop offset="0.164" stop-color="#75F9A8"/>
<stop offset="1" stop-color="#75F9A8" stop-opacity="0"/>
</radialGradient>
<radialGradient id="paint16_radial_3593_5301" cx="0" cy="0" r="1" gradientUnits="userSpaceOnUse" gradientTransform="translate(12.431 17.5571) rotate(-45) scale(11.601 7.94666)">
<stop stop-color="#338B6E"/>
<stop offset="1" stop-color="#338B6E" stop-opacity="0"/>
</radialGradient>
<radialGradient id="paint17_radial_3593_5301" cx="0" cy="0" r="1" gradientUnits="userSpaceOnUse" gradientTransform="translate(20.2003 9.72236) rotate(136.672) scale(7.95005 1.17133)">
<stop stop-color="#309B69"/>
<stop offset="1" stop-color="#34BB72" stop-opacity="0"/>
</radialGradient>
<radialGradient id="paint18_radial_3593_5301" cx="0" cy="0" r="1" gradientUnits="userSpaceOnUse" gradientTransform="translate(25.021 4.6579) rotate(136.695) scale(9.8071 0.221917)">
<stop stop-color="#79F0AF"/>
<stop offset="1" stop-color="#79F0AF" stop-opacity="0"/>
</radialGradient>
<radialGradient id="paint19_radial_3593_5301" cx="0" cy="0" r="1" gradientUnits="userSpaceOnUse" gradientTransform="translate(10.3982 19.9385) rotate(-47.586) scale(8.99992 8.80408)">
<stop stop-color="#53CE8D"/>
<stop offset="1" stop-color="#39B97C"/>
</radialGradient>
<radialGradient id="paint20_radial_3593_5301" cx="0" cy="0" r="1" gradientUnits="userSpaceOnUse" gradientTransform="translate(10.439 18.7902) rotate(-43.4518) scale(6.44089 0.92695)">
<stop stop-color="#1FAE5A"/>
<stop offset="1" stop-color="#1FAE5A" stop-opacity="0"/>
</radialGradient>
<radialGradient id="paint21_radial_3593_5301" cx="0" cy="0" r="1" gradientUnits="userSpaceOnUse" gradientTransform="translate(14.8109 14.8356) rotate(135.971) scale(9.70212 0.11481)">
<stop offset="0.366" stop-color="#6AD392"/>
<stop offset="1" stop-color="#6AD392" stop-opacity="0"/>
</radialGradient>
<radialGradient id="paint22_radial_3593_5301" cx="0" cy="0" r="1" gradientUnits="userSpaceOnUse" gradientTransform="translate(3.43679 24.8697) rotate(-67.7703) scale(1.27388 1.60048)">
<stop offset="0.21" stop-color="#718C9F"/>
<stop offset="1" stop-color="#718C9F" stop-opacity="0"/>
</radialGradient>
<radialGradient id="paint23_radial_3593_5301" cx="0" cy="0" r="1" gradientUnits="userSpaceOnUse" gradientTransform="translate(7.55804 29.4542) rotate(-70.0161) scale(2.3131 8.65886)">
<stop stop-color="#718C9F"/>
<stop offset="1" stop-color="#718C9F" stop-opacity="0"/>
</radialGradient>
<linearGradient id="paint24_linear_3593_5301" x1="7.58966" y1="3.93996" x2="14.811" y2="15.7525" gradientUnits="userSpaceOnUse">
<stop stop-color="#3AC97D"/>
<stop offset="1" stop-color="#3FAD80"/>
</linearGradient>
<radialGradient id="paint25_radial_3593_5301" cx="0" cy="0" r="1" gradientUnits="userSpaceOnUse" gradientTransform="translate(4.12364 3.32524) rotate(45) scale(7.13459 9.6458)">
<stop stop-color="#3BC577"/>
<stop offset="1" stop-color="#3BC577" stop-opacity="0"/>
</radialGradient>
<radialGradient id="paint26_radial_3593_5301" cx="0" cy="0" r="1" gradientUnits="userSpaceOnUse" gradientTransform="translate(13.597 2.75124) rotate(145.105) scale(5.9508 5.79362)">
<stop stop-color="#5AF095"/>
<stop offset="1" stop-color="#5AF095" stop-opacity="0"/>
</radialGradient>
<radialGradient id="paint27_radial_3593_5301" cx="0" cy="0" r="1" gradientUnits="userSpaceOnUse" gradientTransform="translate(14.8124 14.9244) rotate(-134.582) scale(13.0055 0.676082)">
<stop offset="0.433" stop-color="#3AA578"/>
<stop offset="1" stop-color="#3AA578" stop-opacity="0"/>
</radialGradient>
<radialGradient id="paint28_radial_3593_5301" cx="0" cy="0" r="1" gradientUnits="userSpaceOnUse" gradientTransform="translate(14.9922 15.1579) rotate(-134.009) scale(12.5744 0.0674628)">
<stop offset="0.545" stop-color="#4EB87F"/>
<stop offset="1" stop-color="#4EB87F" stop-opacity="0"/>
</radialGradient>
<radialGradient id="paint29_radial_3593_5301" cx="0" cy="0" r="1" gradientUnits="userSpaceOnUse" gradientTransform="translate(5.76397 14.9256) rotate(4.37715) scale(8.14485 4.17459)">
<stop stop-color="#379876"/>
<stop offset="1" stop-color="#379876" stop-opacity="0"/>
</radialGradient>
<linearGradient id="paint30_linear_3593_5301" x1="21.657" y1="35.4404" x2="14.7256" y2="25.8841" gradientUnits="userSpaceOnUse">
<stop stop-color="#69AA99"/>
<stop offset="1" stop-color="#69AA99" stop-opacity="0"/>
</linearGradient>
<linearGradient id="paint31_linear_3593_5301" x1="13.6388" y1="16.326" x2="5.96859" y2="20.6323" gradientUnits="userSpaceOnUse">
<stop stop-color="#75E2A0"/>
<stop offset="1" stop-color="#72D79A" stop-opacity="0"/>
</linearGradient>
<radialGradient id="paint32_radial_3593_5301" cx="0" cy="0" r="1" gradientUnits="userSpaceOnUse" gradientTransform="translate(13.4748 15.6716) rotate(93.1639) scale(8.17457 2.14599)">
<stop stop-color="#6EE79D"/>
<stop offset="1" stop-color="#72D79A" stop-opacity="0"/>
</radialGradient>
<radialGradient id="paint33_radial_3593_5301" cx="0" cy="0" r="1" gradientUnits="userSpaceOnUse" gradientTransform="translate(29.1435 19.485) rotate(-178.768) scale(7.15095 3.70344)">
<stop stop-color="#81FFB3"/>
<stop offset="1" stop-color="#81FFB3" stop-opacity="0"/>
</radialGradient>
<radialGradient id="paint34_radial_3593_5301" cx="0" cy="0" r="1" gradientUnits="userSpaceOnUse" gradientTransform="translate(20.049 20.5616) rotate(136.169) scale(0.991616 6.27498)">
<stop stop-color="#72DDA1"/>
<stop offset="1" stop-color="#72DDA1" stop-opacity="0"/>
</radialGradient>
<radialGradient id="paint35_radial_3593_5301" cx="0" cy="0" r="1" gradientUnits="userSpaceOnUse" gradientTransform="translate(13.5982 7.91498) rotate(152.304) scale(2.91835 13.1045)">
<stop stop-color="#77E8A3"/>
<stop offset="1" stop-color="#77E8A3" stop-opacity="0"/>
</radialGradient>
<radialGradient id="paint36_radial_3593_5301" cx="0" cy="0" r="1" gradientUnits="userSpaceOnUse" gradientTransform="translate(21.72 8.73792) rotate(-174.24) scale(14.3047 6.97567)">
<stop stop-color="#77E8A3"/>
<stop offset="0.999" stop-color="#77E8A3" stop-opacity="0"/>
</radialGradient>
<linearGradient id="paint37_linear_3593_5301" x1="9.91659" y1="11.1361" x2="10.7579" y2="10.2449" gradientUnits="userSpaceOnUse">
<stop stop-color="#75D79F"/>
<stop offset="1" stop-color="#75D79F" stop-opacity="0"/>
</linearGradient>
<radialGradient id="paint38_radial_3593_5301" cx="0" cy="0" r="1" gradientUnits="userSpaceOnUse" gradientTransform="translate(27.7064 8.50832) rotate(-174.56) scale(4.03773 1.4135)">
<stop stop-color="#80FFB4"/>
<stop offset="1" stop-color="#80FFB4" stop-opacity="0"/>
</radialGradient>
<radialGradient id="paint39_radial_3593_5301" cx="0" cy="0" r="1" gradientUnits="userSpaceOnUse" gradientTransform="translate(23.2791 6.31736) rotate(-107.078) scale(5.51629 1.93111)">
<stop stop-color="#80FFB4"/>
<stop offset="1" stop-color="#80FFB4" stop-opacity="0"/>
</radialGradient>
</defs>
</svg>
