<svg width="652" height="197" viewBox="0 0 652 197" fill="none" xmlns="http://www.w3.org/2000/svg">
<path d="M143.2 149.8H0.959961V85.96C52.48 82.88 93.36 57.4 93.36 5.04V0.279996H127.8V5.04C127.8 64.12 89.44 102.2 36.52 115.64H143.2V38.08H177.64V115.64H212.08V149.8H177.64V196.28H143.2V149.8Z" fill="white"/>
<path d="M582.2 149.8H439.96V85.96C491.48 82.88 532.36 57.4 532.36 5.04V0.279996H566.8V5.04C566.8 64.12 528.44 102.2 475.52 115.64H582.2V38.08H616.64V115.64H651.08V149.8H616.64V196.28H582.2V149.8Z" fill="white"/>
<path d="M270.44 0H379.36C386.453 0 392.52 1.12 397.56 3.36001C402.6 5.6 406.707 8.49334 409.88 12.04C413.053 15.4 415.387 19.2267 416.88 23.52C418.56 27.6267 419.4 31.64 419.4 35.56C419.4 42.6533 417.72 48.8133 414.36 54.04C411.187 59.08 407.173 63.56 402.32 67.48C397.467 71.2133 392.147 74.48 386.36 77.28C380.573 79.8933 375.253 82.32 370.4 84.56C365.547 86.8 361.44 88.9467 358.08 91C354.907 93.0533 353.32 95.3867 353.32 98C353.32 100.613 354.907 103.04 358.08 105.28C361.44 107.333 365.547 109.48 370.4 111.72C375.253 113.96 380.573 116.48 386.36 119.28C392.147 121.893 397.467 125.067 402.32 128.8C407.173 132.533 411.187 137.013 414.36 142.24C417.72 147.467 419.4 153.627 419.4 160.72C419.4 164.64 418.56 168.747 416.88 173.04C415.387 177.147 413.053 180.973 409.88 184.52C406.707 187.88 402.6 190.68 397.56 192.92C392.52 194.973 386.453 196 379.36 196H270.44C263.347 196 257.28 194.973 252.24 192.92C247.2 190.68 243 187.88 239.64 184.52C236.467 180.973 234.133 177.147 232.64 173.04C231.147 168.747 230.4 164.64 230.4 160.72C230.4 153.44 231.987 147.28 235.16 142.24C238.52 137.013 242.627 132.533 247.48 128.8C252.333 125.067 257.653 121.893 263.44 119.28C269.227 116.48 274.547 113.96 279.4 111.72C284.253 109.48 288.267 107.333 291.44 105.28C294.8 103.04 296.48 100.613 296.48 98C296.48 95.3867 294.8 93.0533 291.44 91C288.267 88.9467 284.253 86.8 279.4 84.56C274.547 82.32 269.227 79.8933 263.44 77.28C257.653 74.48 252.333 71.2133 247.48 67.48C242.627 63.56 238.52 59.08 235.16 54.04C231.987 48.8133 230.4 42.6533 230.4 35.56C230.4 31.64 231.147 27.6267 232.64 23.52C234.133 19.2267 236.467 15.4 239.64 12.04C243 8.49334 247.2 5.6 252.24 3.36001C257.28 1.12 263.347 0 270.44 0ZM295.64 43.96C295.64 49 296.293 53.76 297.6 58.24C298.907 62.5333 300.307 66.92 301.8 71.4C303.293 75.6933 304.693 79.9867 306 84.28C307.307 88.5733 307.96 93.0533 307.96 97.72C307.96 102.387 307.307 106.96 306 111.44C304.693 115.733 303.293 120.12 301.8 124.6C300.307 128.893 298.907 133.28 297.6 137.76C296.293 142.053 295.64 146.72 295.64 151.76C295.64 156.24 296.293 160.44 297.6 164.36C299.093 168.28 301.053 171.733 303.48 174.72C306.093 177.707 309.173 180.04 312.72 181.72C316.267 183.4 320.28 184.24 324.76 184.24C329.24 184.24 333.253 183.4 336.8 181.72C340.347 180.04 343.427 177.707 346.04 174.72C348.653 171.733 350.613 168.28 351.92 164.36C353.413 160.44 354.16 156.24 354.16 151.76C354.16 146.72 353.507 142.053 352.2 137.76C350.893 133.28 349.493 128.893 348 124.6C346.507 120.12 345.107 115.733 343.8 111.44C342.493 106.96 341.84 102.387 341.84 97.72C341.84 93.0533 342.493 88.5733 343.8 84.28C345.107 79.9867 346.507 75.6933 348 71.4C349.493 66.92 350.893 62.5333 352.2 58.24C353.507 53.76 354.16 49 354.16 43.96C354.16 39.48 353.413 35.28 351.92 31.36C350.613 27.44 348.653 23.9867 346.04 21C343.427 18.0133 340.347 15.68 336.8 14C333.253 12.32 329.24 11.48 324.76 11.48C320.28 11.48 316.267 12.32 312.72 14C309.173 15.68 306.093 18.0133 303.48 21C301.053 23.9867 299.093 27.44 297.6 31.36C296.293 35.28 295.64 39.48 295.64 43.96Z" fill="white"/>
</svg>
