<svg width="44" height="44" viewBox="0 0 44 44" fill="none" xmlns="http://www.w3.org/2000/svg">
<path d="M19.9741 22.4769C21.248 23.2114 21.8847 23.5783 22.5847 23.579C23.2847 23.5797 23.9213 23.2135 25.1974 22.4811L33.3256 17.8142C33.5059 17.7107 33.6557 17.5615 33.7598 17.3817C33.864 17.2018 33.9188 16.9977 33.9188 16.7899C33.9188 16.582 33.864 16.3779 33.7598 16.198C33.6557 16.0182 33.5059 15.869 33.3256 15.7656L25.1939 11.0965C23.9199 10.3662 23.2833 10 22.584 10C21.8847 10 21.2487 10.3662 19.9755 11.0986L12.9846 15.1198L12.8824 15.1789C11.7092 15.8647 10.7344 16.8438 10.0538 18.02C9.37313 19.1962 9.00999 20.5292 9 21.8882V22.1234C9.01014 23.5008 9.38307 24.8511 10.0812 26.0385C10.7794 27.2259 11.7781 28.2083 12.9768 28.8868L17.3557 31.4122C19.9072 32.8841 21.1832 33.62 22.5847 33.62C23.9861 33.6207 25.2615 32.8855 27.8143 31.4157L32.4369 28.7537C33.7151 28.0178 34.3545 27.6502 34.7045 27.0439C35.0566 26.4368 35.0566 25.7002 35.0566 24.2269V21.3797C35.0569 21.1817 35.005 20.9872 34.9061 20.8157C34.8072 20.6441 34.6649 20.5017 34.4935 20.4027C34.3221 20.3036 34.1276 20.2515 33.9296 20.2516C33.7316 20.2516 33.5372 20.3038 33.3658 20.4029L23.8868 25.8453C23.2509 26.2101 22.9333 26.3932 22.584 26.3932C22.2354 26.3932 21.9171 26.2108 21.2811 25.846L14.8656 22.1677C14.5437 21.9832 14.3832 21.891 14.2543 21.8748C14.1112 21.8564 13.9661 21.8858 13.8414 21.9584C13.7167 22.031 13.6195 22.1427 13.5648 22.2762C13.5155 22.3959 13.517 22.5811 13.5184 22.9509C13.5205 23.2234 13.5212 23.3593 13.5465 23.4854C13.6036 23.7657 13.7508 24.0206 13.967 24.2086C14.0634 24.2931 14.1818 24.3607 14.4177 24.4974L21.2769 28.4516C21.9149 28.8192 22.234 29.003 22.584 29.003C22.934 29.003 23.253 28.8199 23.891 28.4523L32.2989 23.6114C32.5172 23.4861 32.6256 23.4234 32.7073 23.4706C32.789 23.5178 32.789 23.6431 32.789 23.8945V25.1854C32.789 25.5544 32.789 25.7382 32.701 25.8896C32.6137 26.0417 32.4538 26.1333 32.1341 26.3178L25.1995 30.3108C23.9227 31.0453 23.2847 31.4129 22.584 31.4122C21.8833 31.4115 21.2459 31.0439 19.9698 30.308L13.4817 26.5643L13.4416 26.541C12.7732 26.1511 12.2181 25.5936 11.8309 24.9237C11.4438 24.2537 11.238 23.4944 11.2338 22.7206V21.4889C11.234 21.0618 11.3463 20.6423 11.5597 20.2724C11.773 19.9025 12.0798 19.5951 12.4493 19.3811C12.7761 19.1918 13.1469 19.0921 13.5245 19.0918C13.9021 19.0916 14.2731 19.1909 14.6001 19.3797L19.9741 22.4769Z" stroke="white" stroke-width="0.601826" stroke-linecap="round" stroke-linejoin="round"/>
<circle cx="22" cy="22" r="21" stroke="white" stroke-width="0.5"/>
</svg>
