<svg xmlns="http://www.w3.org/2000/svg" xmlns:xlink="http://www.w3.org/1999/xlink" width="1080" zoomAndPan="magnify" viewBox="0 0 810 809.999993" height="1080" preserveAspectRatio="xMidYMid meet" version="1.0"><defs><clipPath id="d31bd70505"><path d="M 58 22 L 753.96875 22 L 753.96875 791.984375 L 58 791.984375 Z M 58 22 " clip-rule="nonzero"/></clipPath></defs><g clip-path="url(#d31bd70505)"><path fill="#ffffff" d="M 746.050781 452.148438 C 737.152344 441.335938 726.378906 432.035156 713.910156 421.269531 C 690.53125 401.089844 661.4375 375.96875 631.613281 328.117188 C 611.277344 295.488281 586.859375 233.210938 567.242188 183.167969 C 556.703125 156.285156 547.601562 133.070312 541.34375 120.207031 C 507.925781 51.515625 453.65625 17.988281 384.425781 23.171875 C 284.949219 30.65625 247.601562 100.378906 229.652344 133.882812 C 222.691406 146.875 216.109375 169.355469 207.777344 197.816406 C 189.59375 259.925781 162.117188 353.78125 108.207031 411.820312 C 97.332031 423.523438 89.144531 429.84375 82.566406 434.921875 C 73.363281 442.027344 66.09375 447.636719 60.257812 461.605469 C 56.566406 470.453125 56.207031 485.46875 75.453125 506.804688 C 84.632812 516.984375 97.085938 527.269531 110.65625 535.988281 C 96.105469 552.804688 85.5625 568.015625 80.488281 594.414062 C 80.148438 596.164062 79.972656 597.988281 79.886719 599.847656 C 79.851562 600.222656 79.777344 600.582031 79.75 600.960938 L 79.824219 600.96875 C 79.476562 617.609375 88.6875 638.082031 105.40625 657.1875 C 128.425781 683.492188 169.558594 710.535156 217.460938 710.140625 C 217.800781 710.144531 218.101562 710.1875 218.449219 710.1875 C 218.570312 710.1875 218.710938 710.171875 218.832031 710.171875 C 229.746094 726.832031 275.984375 785.75 387.027344 791.46875 C 394.230469 791.839844 401.234375 792.015625 408.074219 792.015625 C 503.007812 792.011719 562.609375 757.4375 580.296875 721.027344 C 586.609375 708.03125 589.402344 695.355469 591.871094 684.175781 C 596.320312 664.003906 598.851562 655.011719 612.273438 653.277344 C 616.164062 652.777344 619.96875 652.253906 623.71875 651.683594 C 627.246094 651.40625 630.804688 650.96875 634.398438 650.316406 L 634.3125 649.851562 C 657.507812 645.339844 678.691406 637.253906 701.300781 616.203125 C 727.519531 591.789062 713.085938 552.964844 705.941406 537.859375 C 719.015625 527.835938 749.4375 502.035156 752.890625 476.65625 C 754.144531 467.429688 751.84375 459.183594 746.050781 452.148438 Z M 746.050781 452.148438 " fill-opacity="1" fill-rule="nonzero"/></g><path fill="#000000" d="M 734.042969 462.03125 C 725.984375 452.242188 715.675781 443.34375 703.746094 433.042969 C 679.570312 412.175781 649.484375 386.203125 618.410156 336.34375 C 597.320312 302.5 572.613281 239.480469 552.761719 188.84375 C 542.34375 162.269531 533.34375 139.320312 527.355469 127.015625 C 496.527344 63.640625 448.851562 33.929688 385.59375 38.683594 C 305.648438 44.699219 269.988281 91.523438 243.363281 141.230469 C 237.164062 152.796875 230.464844 175.683594 222.707031 202.1875 C 204.113281 265.699219 176.011719 361.679688 119.601562 422.402344 C 107.855469 435.050781 99.101562 441.808594 92.070312 447.238281 C 83.277344 454.023438 78.863281 457.433594 74.613281 467.605469 C 68.960938 481.140625 93.457031 506.851562 121.121094 524.1875 C 126.113281 518.613281 131.261719 511.980469 137.5625 505.292969 C 149.09375 493.054688 161.835938 475.933594 174.382812 457.308594 L 202.589844 412.566406 C 226.9375 370.050781 251.023438 309.726562 244.121094 339.203125 C 236.761719 370.632812 223.976562 400.589844 209.550781 427.261719 C 189.257812 464.785156 165.722656 495.800781 149.511719 515.25 C 142.929688 523.148438 136.800781 529.996094 131.390625 536.035156 C 123.921875 544.371094 117.640625 551.410156 112.425781 558.554688 C 115.605469 558.183594 118.894531 558.3125 122.246094 558.996094 C 138.964844 562.398438 156.488281 578.636719 172.925781 605.957031 C 184.160156 624.628906 188.566406 643.832031 192.109375 659.257812 C 197.734375 683.753906 200.9375 693.84375 216.308594 694.574219 C 217.953125 694.574219 219.609375 694.554688 221.273438 694.476562 C 226.089844 690.273438 244.210938 658.890625 259.648438 617.09375 C 283.964844 551.242188 307.566406 430.285156 307.566406 465.5625 C 307.566406 500.839844 278.234375 604.664062 267.304688 634.6875 C 257.769531 660.886719 245.0625 691.125 233.402344 703.847656 C 238.140625 710.527344 247.960938 722.605469 264.257812 734.929688 C 286.691406 751.886719 326.335938 772.769531 387.824219 775.929688 C 450.992188 779.199219 499.3125 766.882812 530.347656 748.941406 L 530.300781 748.898438 C 544.902344 731.570312 533.324219 711.171875 515.375 684.238281 C 507.824219 672.914062 500.972656 662.59375 498.957031 653.265625 C 468.132812 595.507812 464.382812 519.09375 467.921875 495.929688 C 471.195312 474.492188 476.132812 563.886719 505.722656 631.582031 C 519.894531 615.621094 542.160156 621.359375 565.589844 627.425781 C 585.425781 632.554688 607.90625 638.363281 631.464844 634.105469 L 631.546875 634.554688 C 652.519531 630.449219 670.875 623.277344 690.699219 604.816406 C 711.75 585.21875 693.859375 548.117188 689.976562 540.726562 C 674.964844 529.417969 652.296875 501.121094 614.808594 446.914062 C 593.289062 415.804688 571.382812 374.550781 563.019531 352.550781 C 554.652344 330.554688 604.886719 409.746094 625.765625 439.929688 C 648.820312 473.261719 678.378906 510.78125 696.132812 525.757812 C 709.984375 515.125 735.035156 492.558594 737.476562 474.550781 C 738.140625 469.660156 737.046875 465.683594 734.042969 462.03125 Z M 345.132812 315.171875 C 330.949219 315.171875 319.453125 290.300781 319.453125 259.621094 C 319.453125 228.945312 330.949219 204.074219 345.132812 204.074219 C 359.3125 204.074219 370.808594 228.945312 370.808594 259.621094 C 370.808594 290.300781 359.3125 315.171875 345.132812 315.171875 Z M 438.777344 315.171875 C 424.597656 315.171875 413.101562 290.300781 413.101562 259.621094 C 413.101562 228.945312 424.597656 204.074219 438.777344 204.074219 C 452.960938 204.074219 464.457031 228.945312 464.457031 259.621094 C 464.457031 290.300781 452.960938 315.171875 438.777344 315.171875 Z M 574.9375 549.050781 C 554.652344 525.730469 540.933594 498.605469 531.121094 468.644531 C 521.527344 439.34375 504.546875 352.523438 514.976562 379.925781 C 525.40625 407.324219 536.515625 435.871094 546.226562 464.28125 C 554.261719 488.886719 595.222656 572.375 574.9375 549.050781 Z M 574.9375 549.050781 " fill-opacity="1" fill-rule="nonzero"/></svg>