<svg width="42" height="42" viewBox="0 0 42 42" fill="none" xmlns="http://www.w3.org/2000/svg">
<path d="M23.1263 33.717C23.164 29.8619 22.1866 26.7271 20.9434 26.7149C19.7001 26.7028 18.6617 29.818 18.6241 33.6729C18.5864 37.5279 19.5637 40.6629 20.8069 40.675C22.0502 40.6872 23.0886 37.572 23.1263 33.717Z" fill="white"/>
<path d="M15.915 32.8419C18.031 29.6193 18.9039 26.4537 17.8646 25.7712C16.8253 25.0888 14.2674 27.148 12.1514 30.3706C10.0354 33.5932 9.16254 36.7587 10.2018 37.4412C11.2411 38.1236 13.7989 36.0644 15.915 32.8419Z" fill="white"/>
<path d="M10.314 28.2176C13.8365 26.6508 16.2823 24.4597 15.777 23.3237C15.2717 22.1877 12.0066 22.537 8.48417 24.1038C4.96175 25.6706 2.51589 27.8616 3.02119 28.9977C3.52649 30.1337 6.7916 29.7844 10.314 28.2176Z" fill="white"/>
<path d="M15.3548 20.1373C15.5439 18.9084 12.6084 17.4368 8.79816 16.8504C4.98782 16.2639 1.74564 16.7847 1.5565 18.0135C1.36737 19.2423 4.3029 20.7139 8.11321 21.3003C11.9235 21.8868 15.1657 21.366 15.3548 20.1373Z" fill="white"/>
<path d="M16.7223 17.2107C17.5457 16.2791 15.8714 13.4543 12.9827 10.9013C10.094 8.3483 7.08482 7.0339 6.26147 7.96551C5.43812 8.89714 7.1124 11.722 10.0011 14.275C12.8898 16.828 15.899 18.1423 16.7223 17.2107Z" fill="white"/>
<path d="M19.4475 15.5008C20.6438 15.1622 20.7626 11.8806 19.713 8.17112C18.6633 4.4616 16.8425 1.72888 15.6462 2.06741C14.4499 2.40594 14.331 5.68751 15.3807 9.39706C16.4303 13.1065 18.2511 15.8393 19.4475 15.5008Z" fill="white"/>
<path d="M26.8455 9.51056C27.9682 5.82246 27.9141 2.53917 26.7246 2.17712C25.5352 1.81506 23.6609 4.51134 22.5382 8.19944C21.4157 11.8875 21.4698 15.1708 22.6592 15.5329C23.8486 15.8949 25.7229 13.1987 26.8455 9.51056Z" fill="white"/>
<path d="M32.131 14.4964C35.0691 12.0004 36.7983 9.20879 35.9932 8.2613C35.1882 7.31378 32.1539 8.56913 29.2159 11.0651C26.2779 13.5612 24.5487 16.3527 25.3537 17.3003C26.1587 18.2478 29.193 16.9925 32.131 14.4964Z" fill="white"/>
<path d="M33.8791 21.548C37.7003 21.0368 40.6642 19.6234 40.4993 18.3911C40.3345 17.1588 37.1032 16.5742 33.282 17.0854C29.461 17.5966 26.4969 19.01 26.6618 20.2423C26.8267 21.4746 30.058 22.0593 33.8791 21.548Z" fill="white"/>
<path d="M38.8088 29.3513C39.3364 28.2255 36.9343 25.9866 33.4434 24.3507C29.9526 22.7147 26.695 22.3011 26.1674 23.4269C25.6398 24.5528 28.0419 26.7916 31.5328 28.4276C35.0236 30.0635 38.2812 30.4771 38.8088 29.3513Z" fill="white"/>
<path d="M31.4655 37.6569C32.518 36.9952 31.7078 33.8129 29.6557 30.5493C27.6037 27.2856 25.0869 25.1765 24.0344 25.8382C22.9818 26.5 23.7921 29.6822 25.8441 32.9459C27.8962 36.2095 30.413 38.3188 31.4655 37.6569Z" fill="white"/>
</svg>
