<svg width="230" height="27" viewBox="0 0 230 27" fill="none" xmlns="http://www.w3.org/2000/svg">
<g clip-path="url(#clip0_7_598)">
<path d="M155.845 23.2858V0.711914H168.421C176.985 0.711914 180.05 3.04496 180.05 8.0894C180.05 11.1476 178.628 13.0077 175.563 13.9536C178.754 14.7102 179.766 16.4758 179.766 20.196V21.6463C179.766 22.3399 179.987 22.9705 180.555 23.2858H172.592C171.96 23.0335 171.834 22.3399 171.834 21.7724V20.0699C171.834 17.5792 170.886 16.8541 167.852 16.8541H163.302V23.2858H155.845ZM168.516 6.63911H163.302V11.2106H168.421C170.76 11.2106 172.34 10.8008 172.34 9.03522V8.84605C172.34 7.14356 171.171 6.63911 168.516 6.63911Z" fill="white"/>
<path d="M114.123 23.9238C107.152 23.9238 102.875 20.2481 102.875 12.4848V12.3897C102.875 4.40468 108.356 0.000244141 116.689 0.000244141C124.325 0.000244141 129.268 2.75698 130.092 9.09432H121.537C121.03 7.47832 119.636 6.62277 116.658 6.62277C112.856 6.62277 110.796 8.33384 110.796 12.3264C110.796 15.8753 112.539 17.7448 116.531 17.7448C119.826 17.7448 121.696 16.7942 122.298 15.0514H115.644V10.8688H130.155V23.29H123.438L122.963 16.9843C122.298 21.8641 119.414 23.9238 114.123 23.9238Z" fill="white"/>
<path d="M85.2357 23.9998C78.1933 23.9998 73.8716 20.3124 73.8716 12.5245V12.4292C73.8716 4.4187 79.4096 0.000244141 87.8286 0.000244141C95.5436 0.000244141 100.537 2.76575 101.37 9.12326H92.7266C92.2143 7.5021 90.8058 6.64382 87.7968 6.64382C83.9552 6.64382 81.8745 8.36036 81.8745 12.3656C81.8745 15.9258 83.6352 17.8012 87.6687 17.8012C90.9978 17.8012 92.8865 16.8476 93.4948 15.0993H86.7722V10.9034H101.434V23.364H94.6471L94.1669 17.0383C93.4948 21.9336 90.5817 23.9998 85.2357 23.9998Z" fill="white"/>
<path d="M24.397 23.289V0.601318H37.0073C45.5938 0.601318 48.6672 2.94615 48.6672 8.01602C48.6672 11.0896 47.2416 12.9591 44.1679 13.9097C47.3682 14.6702 48.3821 16.4447 48.3821 20.1837V21.6413C48.3821 22.3384 48.604 22.9721 49.1742 23.289H41.1898C40.5561 23.0355 40.4293 22.3384 40.4293 21.768V20.0569C40.4293 17.5537 39.4788 16.8249 36.437 16.8249H31.8743V23.289H24.397ZM37.1023 6.55841H31.8743V11.153H37.0073C39.352 11.153 40.9363 10.7411 40.9363 8.96661V8.77649C40.9363 7.0654 39.764 6.55841 37.1023 6.55841Z" fill="white"/>
<path fill-rule="evenodd" clip-rule="evenodd" d="M1.87618 7.09208C1.95635 7.15008 2.08251 7.21728 2.22831 7.25552H2.66748C2.76185 7.22631 2.85445 7.17446 2.93984 7.09208C3.39568 6.65218 4.38338 6.30026 4.9152 7.09208C4.98535 7.15008 5.10227 7.21728 5.24811 7.25552H5.71866C5.8277 7.22631 5.94099 7.17446 6.05482 7.09208C6.66263 6.65218 8.3341 6.47622 7.80227 8.5877C7.57434 8.99826 7.25524 9.97775 7.80227 10.6112C8.34929 11.2446 7.92889 12.1068 7.6503 12.4587C7.52369 12.6933 7.34641 13.3033 7.6503 13.8664C7.80344 14.1501 7.93186 14.6339 7.8963 15.07C7.9211 15.3107 7.89565 15.6109 7.80227 15.9817C7.57434 16.3923 7.25524 17.3718 7.80227 18.0052C8.34929 18.6387 7.92889 19.5008 7.6503 19.8528C7.52369 20.0874 7.34641 20.6974 7.6503 21.2604C7.92502 21.7694 8.12026 22.9224 7.43161 23.289H15.1452V23.276C14.4703 22.8956 14.6685 21.7636 14.946 21.2606C15.2567 20.6975 15.0755 20.0876 14.946 19.853C14.6612 19.501 14.2314 18.6389 14.7907 18.0054C15.35 17.372 15.0237 16.3925 14.7907 15.9819C14.6952 15.6111 14.6692 15.3108 14.6945 15.0702C14.6582 14.634 14.7895 14.1502 14.946 13.8665C15.2567 13.3034 15.0755 12.6935 14.946 12.4588C14.6612 12.1069 14.2314 11.2447 14.7907 10.6113C15.35 9.97787 15.0237 8.99838 14.7907 8.5878C14.2469 6.47634 15.9558 6.65229 16.5773 7.09218C16.6935 7.17446 16.8092 7.22629 16.9205 7.25552H17.4025C17.5514 7.21728 17.6708 7.15015 17.7424 7.09218C18.2862 6.30038 19.296 6.65229 19.762 7.09218C19.8492 7.17446 19.9438 7.22629 20.0401 7.25552H20.49C20.6388 7.21728 20.7676 7.15015 20.8495 7.09218C20.9531 6.8869 21.3 6.51153 21.8593 6.65229C22.3452 6.77457 22.6317 6.50735 22.7495 6.30048V0.601318H0V6.26626C0.102223 6.47605 0.386657 6.78132 0.888501 6.65218C1.43553 6.51141 1.77488 6.88678 1.87618 7.09208Z" fill="white"/>
<path fill-rule="evenodd" clip-rule="evenodd" d="M50.1108 23.2858V16.4436C50.2429 16.44 50.372 16.4614 50.471 16.5153C50.7241 16.6527 50.816 16.5611 51.0323 16.3453L51.0613 16.3162C51.2989 16.0798 52.2871 15.7982 53.03 16.3361C53.6243 16.7663 54.2682 16.4556 54.5158 16.2464C55.11 15.5293 55.8639 15.9476 56.1666 16.2464C58.3951 16.8739 58.1475 14.9019 57.7348 14.1847C57.4048 13.6111 57.5972 12.9896 57.7348 12.7505C58.0375 12.392 58.4942 11.5135 57.9 10.8681C57.3057 10.2227 57.6524 9.22479 57.9 8.80647C58.4778 6.65518 56.6618 6.83444 56.0015 7.28264C55.4733 7.64118 54.956 7.43203 54.7634 7.28264C54.1855 6.47589 53.1125 6.83444 52.6173 7.28264C52.221 7.64118 51.5365 7.33197 51.4616 7.28264C51.45 7.27489 51.43 7.25495 51.4025 7.22744C51.2551 7.07983 50.8895 6.71356 50.3886 6.83444C50.2881 6.8587 50.1957 6.86792 50.1108 6.86547V0.711914H72.8604V6.7445C72.7019 6.84717 72.4821 6.9058 72.1946 6.83451C71.743 6.72245 71.57 6.94493 71.4027 7.16036C71.3559 7.22064 71.3096 7.28035 71.2575 7.33204C70.9472 7.64097 70.4119 7.64125 70.0263 7.28271C69.5444 6.83451 68.5004 6.47597 67.9382 7.28271C67.7507 7.4321 67.2475 7.64125 66.7336 7.28271C66.0911 6.83451 64.3243 6.65523 64.8864 8.80654C65.1274 9.22484 65.4645 10.2228 64.8864 10.8682C64.3081 11.5136 64.7524 12.392 65.0471 12.7506C65.1808 12.9896 65.3683 13.6111 65.0471 14.1848C64.6455 14.9019 64.4046 16.874 66.5729 16.2465C66.8673 15.9477 67.6008 15.5294 68.1791 16.2465C68.4201 16.4556 69.0464 16.7664 69.6247 16.3361C70.3475 15.7983 71.6092 15.8221 71.5522 16.2465C71.4951 16.6709 71.8575 16.6588 72.1143 16.5154C72.3161 16.4029 72.644 16.4316 72.8604 16.535V23.2858H65.2562H50.1108Z" fill="white"/>
<path d="M132.553 23.2858C132.163 23.2858 131.847 22.9695 131.847 22.5795V14.7067C131.847 14.3932 132.053 14.1171 132.354 14.0289L135.85 13.0044C136.495 12.8153 136.536 11.9172 135.911 11.6698L132.293 10.2383C132.024 10.1316 131.847 9.87128 131.847 9.58151V1.41821C131.847 1.02813 132.163 0.711914 132.553 0.711914H153.002C153.392 0.711914 153.708 1.02813 153.708 1.41821V9.16696C153.708 9.62333 153.282 9.95987 152.838 9.85396L139.816 6.7464C139.627 6.70118 139.502 6.93823 139.646 7.06913C139.657 7.079 139.669 7.08757 139.682 7.09466L147.095 11.174C147.321 11.2981 147.461 11.5353 147.461 11.7928V12.8455C147.461 13.1233 147.298 13.3753 147.045 13.4894L139.113 17.0628C139.106 17.0661 139.099 17.0701 139.093 17.0747C138.985 17.1518 139.059 17.3218 139.189 17.2939L152.898 14.3517C153.323 14.2604 153.729 14.5713 153.751 15.0056L154.143 22.5428C154.164 22.9467 153.842 23.2858 153.438 23.2858H132.553Z" fill="white"/>
<path fill-rule="evenodd" clip-rule="evenodd" d="M182.242 0.711914L191.65 10.1211C192.453 10.9242 193.354 11.5693 194.315 12.0565C193.354 12.5437 192.453 13.1889 191.65 13.992L182.242 23.4009H192.034L195.226 20.2084C197.245 18.1887 200.453 18.0802 202.6 19.8831L205.668 22.9522C209.751 27.0352 216.371 27.0352 220.454 22.9522L229.862 13.5434H220.165L216.946 16.7628C214.822 18.8865 211.383 18.8986 209.245 16.7897L208.36 15.9178L206.435 13.992C205.632 13.189 204.731 12.5439 203.77 12.0567C204.731 11.5695 205.632 10.9243 206.435 10.1211L215.844 0.711914L206.147 0.712377L202.955 3.90492C200.82 6.03932 197.36 6.03932 195.226 3.90492L192.034 0.712377L182.242 0.711914Z" fill="url(#paint0_linear_7_598)"/>
</g>
<defs>
<linearGradient id="paint0_linear_7_598" x1="206.052" y1="0.711914" x2="206.052" y2="26.0143" gradientUnits="userSpaceOnUse">
<stop stop-color="#FBF197"/>
<stop offset="1" stop-color="#82FBD0"/>
</linearGradient>
<clipPath id="clip0_7_598">
<rect width="230" height="26.1381" fill="white"/>
</clipPath>
</defs>
</svg>
