<svg width="42" height="42" viewBox="0 0 42 42" fill="none" xmlns="http://www.w3.org/2000/svg">
<path d="M22.757 21C22.757 25.3015 19.292 28.7875 15.022 28.7875C10.7485 28.7875 7.28525 25.3015 7.28525 21C7.28525 16.6985 10.7503 13.2107 15.0203 13.2107C19.2938 13.2107 22.757 16.6985 22.757 20.9982M38.5 21C38.5 11.34 30.66 3.5 21 3.5C11.34 3.5 3.5 11.34 3.5 21C3.5 30.66 11.34 38.5 21 38.5C30.66 38.5 38.5 30.6583 38.5 21ZM31.2445 20.9982C31.2445 25.0477 29.512 28.3307 27.377 28.3307C25.2385 28.3307 23.5077 25.0477 23.5077 20.9982C23.5077 16.9487 25.2402 13.6658 27.3752 13.6658C29.5102 13.6658 31.2445 16.947 31.2445 20.9982ZM34.713 20.9982C34.713 24.6242 34.104 27.5678 33.3533 27.5678C32.6025 27.5678 31.9918 24.626 31.9918 20.9982C31.9918 17.3705 32.6008 14.4287 33.3533 14.4287C34.104 14.4287 34.713 17.3687 34.713 20.9982Z" stroke="white" stroke-width="0.5"/>
</svg>
