<svg width="42" height="42" viewBox="0 0 42 42" fill="none" xmlns="http://www.w3.org/2000/svg">
<rect x="0.197627" y="0.197627" width="41.6047" height="41.6047" rx="20.8024" stroke="white" stroke-width="0.395255"/>
<path d="M30.9581 33.9999V34.1952H31.1534V33.9999H30.9581ZM12 33.9999H11.8047V34.1952H12V33.9999ZM12 18.4604V18.2651H11.8047V18.4604H12ZM12 18.4604V18.6557H12.195L12.1953 18.4608L12 18.4604ZM30.9581 18.4604L30.7628 18.4608L30.7632 18.6557H30.9581V18.4604ZM30.9581 18.4604H31.1534V18.2651H30.9581V18.4604ZM30.7628 18.4787V33.9999H31.1534V18.4787H30.7628ZM30.9581 33.8046H12V34.1952H30.9581V33.8046ZM12.1953 33.9999V18.4787H11.8047V33.9999H12.1953ZM12.1953 18.4787V18.4604H11.8047V18.4787H12.1953ZM12 18.6557H12V18.2651H12V18.6557ZM12.1953 18.4608C12.205 13.3419 16.3578 9.1953 21.4791 9.1953V8.8047C16.1423 8.8047 11.8148 13.1258 11.8047 18.46L12.1953 18.4608ZM21.4791 9.1953C26.6004 9.1953 30.7531 13.3419 30.7628 18.4608L31.1534 18.46C31.1433 13.1258 26.8159 8.8047 21.4791 8.8047V9.1953ZM30.9581 18.6557H30.9581V18.2651H30.9581V18.6557ZM30.7628 18.4604V18.4787H31.1534V18.4604H30.7628Z" fill="white"/>
</svg>
