<svg width="42" height="42" viewBox="0 0 42 42" fill="none" xmlns="http://www.w3.org/2000/svg">
<path d="M30.0004 32.7369V32.9322H30.1957V32.7369H30.0004ZM12 32.7369H11.8047V32.9322H12V32.7369ZM12 17.9828V17.7875H11.8047V17.9828H12ZM12 17.9828V18.1781H12.195L12.1953 17.9831L12 17.9828ZM30.0004 17.9828L29.8051 17.9831L29.8055 18.1781H30.0004V17.9828ZM30.0004 17.9828H30.1957V17.7875H30.0004V17.9828ZM29.8051 17.9997V32.7369H30.1957V17.9997H29.8051ZM30.0004 32.5416H12V32.9322H30.0004V32.5416ZM12.1953 32.7369V17.9997H11.8047V32.7369H12.1953ZM12.1953 17.9997V17.9828H11.8047V17.9997H12.1953ZM12 18.1781H12V17.7875H12V18.1781ZM12.1953 17.9831C12.2042 13.1282 16.1429 9.1953 21.0002 9.1953V8.8047C15.9274 8.8047 11.814 12.9121 11.8047 17.9824L12.1953 17.9831ZM21.0002 9.1953C25.8575 9.1953 29.7962 13.1282 29.8051 17.9831L30.1957 17.9824C30.1864 12.9121 26.073 8.8047 21.0002 8.8047V9.1953ZM30.0004 18.1781H30.0004V17.7875H30.0004V18.1781ZM29.8051 17.9828V17.9997H30.1957V17.9828H29.8051Z" fill="white"/>
<circle cx="21" cy="21" r="19.75" stroke="white" stroke-width="0.5"/>
</svg>
