<svg width="46" height="45" viewBox="0 0 46 45" fill="none" xmlns="http://www.w3.org/2000/svg">
<g clip-path="url(#clip0_1242_136)">
<path d="M30.061 34.1847L30.0697 34.163L30.0742 34.14L34.3672 12.2115L34.3718 12.1877V12.1635C34.3718 11.7361 34.2225 11.4276 33.9501 11.2473C33.6958 11.0791 33.3809 11.0551 33.1117 11.0755C32.8365 11.0965 32.5679 11.1672 32.3727 11.2301C32.274 11.2618 32.1916 11.2924 32.1335 11.3152C32.1043 11.3266 32.0812 11.3362 32.065 11.343L32.0459 11.3511L32.0433 11.3522L7.93882 20.9293L7.93827 20.9295L7.92691 20.9336C7.91694 20.9373 7.90299 20.9426 7.88564 20.9494C7.85099 20.9631 7.80254 20.9832 7.74509 21.0096C7.63102 21.0621 7.47741 21.1413 7.32485 21.2473C7.03808 21.4465 6.6652 21.8054 6.7297 22.319C6.78612 22.789 7.10817 23.1104 7.37448 23.3018C7.51119 23.4 7.64369 23.4718 7.7417 23.519C7.79097 23.5427 7.83221 23.5605 7.86183 23.5727C7.87665 23.5788 7.88861 23.5835 7.89727 23.5868L7.90773 23.5908L7.91101 23.592L7.91214 23.5924L7.91258 23.5925L7.91277 23.5926C7.91285 23.5926 7.91293 23.5927 7.99709 23.3572L7.91292 23.5927L7.91648 23.5939L13.9802 25.6594L14.0945 25.6983L14.1961 25.633L28.7572 16.266L28.7577 16.2657L28.7626 16.2627L28.7855 16.2493C28.8058 16.2377 28.8352 16.2213 28.8705 16.2031C28.9429 16.1657 29.0325 16.1244 29.1161 16.0982C29.1442 16.0894 29.1672 16.0838 29.1856 16.0801L29.1821 16.1476C29.1786 16.1527 29.1748 16.1581 29.1706 16.1639C29.1329 16.2158 29.0688 16.2894 28.9628 16.3887L28.9614 16.39C28.74 16.6002 25.8837 19.2054 23.0778 21.7626C21.6759 23.0401 20.288 24.3044 19.2506 25.2493L17.9994 26.3888L17.6498 26.7071L17.6125 26.7412L17.4619 26.6057L17.4079 27.0892L16.6564 33.8145L16.6349 34.0069L16.8158 34.0759C16.9607 34.131 17.117 34.1489 17.2706 34.1279C17.4241 34.1069 17.5699 34.0477 17.6946 33.9556L17.7056 33.9475L17.7157 33.9382L21.4795 30.4639L27.4209 35.0814L27.4353 35.0926L27.4512 35.1015C27.6792 35.2306 27.9322 35.3094 28.1932 35.3326C28.4542 35.3558 28.7171 35.3229 28.9644 35.236C29.2116 35.1492 29.4373 35.0104 29.6265 34.8291C29.8156 34.6478 29.9638 34.4281 30.061 34.1847ZM10.3124 3.9998C13.9714 1.55494 18.2732 0.25 22.6738 0.25C25.5957 0.25 28.489 0.825513 31.1885 1.94368C33.888 3.06185 36.3409 4.70077 38.407 6.76687C40.4731 8.83297 42.112 11.2858 43.2301 13.9853C44.3483 16.6848 44.9238 19.5781 44.9238 22.5C44.9238 26.9006 43.6189 31.2024 41.174 34.8614C38.7292 38.5204 35.2542 41.3723 31.1885 43.0563C27.1229 44.7404 22.6491 45.181 18.3331 44.3225C14.017 43.4639 10.0524 41.3448 6.94071 38.2331C3.82899 35.1214 1.70989 31.1568 0.851366 26.8407C-0.00715525 22.5247 0.433469 18.0509 2.11752 13.9853C3.80157 9.91963 6.6534 6.44466 10.3124 3.9998Z" stroke="white" stroke-width="0.5"/>
</g>
<defs>
<clipPath id="clip0_1242_136">
<rect width="46" height="45" fill="white"/>
</clipPath>
</defs>
</svg>
