<svg width="40" height="45" viewBox="0 0 40 45" fill="none" xmlns="http://www.w3.org/2000/svg">
<g clip-path="url(#clip0_7_499)">
<path d="M5.6075 2.80273C2.51461 2.80273 0 5.31735 0 8.41023V36.4477C0 39.5406 2.51461 42.0552 5.6075 42.0552H33.645C36.7379 42.0552 39.2525 39.5406 39.2525 36.4477V8.41023C39.2525 5.31735 36.7379 2.80273 33.645 2.80273H5.6075ZM31.6386 10.1626L22.5439 20.554L33.242 34.6954H24.8658L18.312 26.1177L10.8032 34.6954H6.64138L16.3669 23.5768L6.10692 10.1626H14.6934L20.6251 18.0043L27.4767 10.1626H31.6386ZM28.3266 32.2071L13.4405 12.5195H10.9609L26.0135 32.2071H28.3179H28.3266Z" stroke="white" stroke-width="0.5"/>
</g>
<defs>
<clipPath id="clip0_7_499">
<rect width="39.2525" height="44.86" fill="white"/>
</clipPath>
</defs>
</svg>
