<svg width="42" height="42" viewBox="0 0 42 42" fill="none" xmlns="http://www.w3.org/2000/svg">
<rect x="0.197627" y="0.197627" width="41.6047" height="41.6047" rx="20.8024" stroke="white" stroke-width="0.395255"/>
<path d="M18.77 21.4789C20.0439 22.2134 20.6806 22.5803 21.3806 22.581C22.0806 22.5817 22.7172 22.2155 23.9933 21.4831L32.1215 16.8161C32.3018 16.7127 32.4516 16.5635 32.5557 16.3837C32.6599 16.2038 32.7147 15.9997 32.7147 15.7918C32.7147 15.584 32.6599 15.3798 32.5557 15.2C32.4516 15.0201 32.3018 14.871 32.1215 14.7675L23.9898 10.0984C22.7158 9.36815 22.0792 9.00195 21.3799 9.00195C20.6806 9.00195 20.0446 9.36815 18.7714 10.1006L11.7805 14.1217L11.6783 14.1809C10.5051 14.8667 9.53033 15.8457 8.84968 17.022C8.16903 18.1982 7.80589 19.5312 7.7959 20.8901V21.1253C7.80604 22.5027 8.17896 23.8531 8.87712 25.0405C9.57528 26.2278 10.574 27.2103 11.7727 27.8888L16.1516 30.4142C18.7031 31.886 19.9791 32.622 21.3806 32.622C22.782 32.6227 24.0574 31.8874 26.6102 30.4177L31.2328 27.7557C32.511 27.0198 33.1504 26.6522 33.5004 26.0458C33.8525 25.4388 33.8525 24.7021 33.8525 23.2289V20.3817C33.8528 20.1837 33.8009 19.9891 33.702 19.8176C33.6031 19.6461 33.4608 19.5037 33.2894 19.4046C33.118 19.3056 32.9235 19.2535 32.7255 19.2535C32.5275 19.2536 32.3331 19.3058 32.1617 19.4049L22.6827 24.8472C22.0468 25.212 21.7292 25.3951 21.3799 25.3951C21.0313 25.3951 20.713 25.2127 20.077 24.8479L13.6615 21.1697C13.3396 20.9852 13.1791 20.8929 13.0502 20.8767C12.9071 20.8584 12.762 20.8878 12.6373 20.9604C12.5126 21.0329 12.4154 21.1447 12.3607 21.2782C12.3114 21.3979 12.3129 21.5831 12.3143 21.9528C12.3164 22.2254 12.3171 22.3613 12.3424 22.4873C12.3995 22.7676 12.5467 23.0225 12.7629 23.2106C12.8593 23.2951 12.9776 23.3627 13.2136 23.4993L20.0728 27.4536C20.7108 27.8212 21.0299 28.005 21.3799 28.005C21.7299 28.005 22.0489 27.8219 22.6869 27.4543L31.0948 22.6134C31.3131 22.488 31.4215 22.4254 31.5032 22.4725C31.5849 22.5197 31.5849 22.6451 31.5849 22.8965V24.1873C31.5849 24.5564 31.5849 24.7402 31.4969 24.8916C31.4096 25.0437 31.2497 25.1352 30.93 25.3198L23.9954 29.3128C22.7186 30.0473 22.0806 30.4149 21.3799 30.4142C20.6792 30.4135 20.0418 30.0459 18.7657 29.3099L12.2776 25.5662L12.2375 25.543C11.5691 25.153 11.014 24.5956 10.6268 23.9256C10.2397 23.2556 10.0339 22.4963 10.0297 21.7225V20.4908C10.0299 20.0638 10.1422 19.6443 10.3556 19.2744C10.5689 18.9044 10.8757 18.5971 11.2452 18.3831C11.572 18.1938 11.9428 18.094 12.3204 18.0938C12.698 18.0935 13.069 18.1928 13.396 18.3816L18.77 21.4789Z" stroke="white" stroke-width="0.601826" stroke-linecap="round" stroke-linejoin="round"/>
</svg>
